<?xml version="1.0" encoding="UTF-8"?>
<svg xmlns="http://www.w3.org/2000/svg" width="200" height="29" viewBox="0 0 200 29" fill="none">
  <g clip-path="url(#clip0_13_68)">
    <path d="M12.5512 14.8803H4.79153V6.44189H0V28.3299H4.79153V19.2992H12.5512V28.3299H17.3427V6.44189H12.5512V14.8803Z" fill="#E74683"></path>
    <path d="M25.5349 6.44189V10.4681H27.0855L20.6835 28.3299H25.7212L27.3916 23.2589H34.5989L36.3292 28.3299H41.3403L33.5274 6.44189H25.5416H25.5349ZM28.7226 19.2393L30.9786 12.4979L33.2346 19.2393H28.7226Z" fill="#E74683"></path>
    <path d="M64.7723 6.44189L64.2199 8.38513L60.786 20.1643L58.0042 8.4184L57.5716 6.44189H52.7202L52.2544 8.4184L49.4393 20.2309L46.0054 8.20545L45.5129 6.44189H40.595L41.307 8.79108L47.2765 28.3299H51.8817L55.1293 15.7787L58.4035 28.3299H63.0154L68.9183 8.85097L69.6902 6.44189H64.7723Z" fill="#E74683"></path>
    <path d="M97.5544 6.44189H92.7628V28.3299H97.5544V6.44189Z" fill="#E74683"></path>
    <path d="M106.984 6.44189H102.193V28.3299H106.984V6.44189Z" fill="#E74683"></path>
    <path d="M131.401 6.44189H124.979H121.851V10.4681H123.422V28.3365H128.213V20.6368H131.275C136.439 20.6368 138.848 17.3293 138.848 13.8022C138.848 9.81593 136.592 6.44189 131.395 6.44189M130.902 16.4908H128.213V10.8674H130.902C132.725 10.8674 133.717 12.0453 133.717 13.8022C133.717 14.7605 133.098 16.4908 130.902 16.4908Z" fill="#E74683"></path>
    <path d="M151.905 6.05591C145.723 6.05591 141.144 11.1602 141.144 17.4358C141.144 23.7114 145.723 28.8157 151.905 28.8157C158.087 28.8157 162.666 23.7114 162.666 17.4358C162.666 11.1602 158.121 6.05591 151.905 6.05591ZM151.905 24.51C148.225 24.51 145.842 21.2025 145.842 17.4291C145.842 13.6558 148.225 10.3483 151.905 10.3483C155.585 10.3483 157.994 13.6558 157.994 17.4291C157.994 21.2025 155.612 24.51 151.905 24.51Z" fill="#E74683"></path>
    <path d="M176.308 15.2797L180.974 8.75787L182.644 6.44196H177.08L174.731 9.90251L171.237 15.0068V6.44196V6.4353H164.869V10.4615H166.446V28.33H171.237V22.3006L173.307 19.4257L177.14 26.8126L177.912 28.33H183.356L182.398 26.5331L176.308 15.2797Z" fill="#E74683"></path>
    <path d="M200 10.5812V6.44189H186.364V28.3299H200V23.911H191.156V19.2992H198.762V14.8803H191.156V10.5812H200Z" fill="#E74683"></path>
    <path d="M196.988 -0.0132764L188.922 1.2627L189.456 4.63473L197.521 3.35875L196.988 -0.0132764Z" fill="#E74683"></path>
    <path d="M73.7897 6.44189V10.4681H75.3403L68.9382 28.3299H73.976L75.6464 23.2589H82.8537L84.5839 28.3299H89.5951L81.7822 6.44189H73.7963H73.7897ZM76.9774 19.2393L79.2334 12.4979L81.4894 19.2393H76.9774Z" fill="#E74683"></path>
  </g>
  <defs>
    <clipPath id="clip0_13_68">
      <rect width="200" height="28.8158" fill="white"></rect>
    </clipPath>
  </defs>
</svg>
