<?xml version="1.0" encoding="UTF-8"?>
<svg xmlns="http://www.w3.org/2000/svg" width="252" height="289" viewBox="0 0 252 289" fill="none">
  <path d="M215.983 149.194C220.671 146.665 245.711 141.62 251.091 141.198L249.776 123.394C242.372 123.956 221.425 128.353 210.681 132.23C210.767 123.89 209.292 111.308 201.838 98.0529L186.87 106.475C192.016 115.623 193.373 124.21 193.541 130.181C185.436 124.915 172.114 117.718 156.839 115.209L154.052 132.161C163.882 133.776 172.934 137.964 179.593 141.796C146.64 146.387 137.072 175.925 136.801 177.015L154.081 181.527C154.257 181.007 162.116 161.764 180.31 159.51C147.762 207.59 141.71 292.564 141.116 302.479H125.226C140.895 182.814 118.186 104.734 93.5678 57.9202C111.466 72.1298 128.545 105.775 128.545 112.492H146.418C146.418 100.615 132.065 72.5479 114.863 53.6783C131.819 57.8424 145.255 65.5804 145.48 65.7033L154.503 50.3052C153.089 49.4609 125.967 33.8169 96.5673 33.2472C101.898 27.0256 108.319 19.9803 115.06 13.562L102.771 0.618876C92.187 10.6602 82.5904 21.8697 76.2228 29.7511C62.164 10.2668 50.5391 1.06561 49.1254 0L38.2914 14.185C38.5373 14.3817 45.3557 19.8122 54.7268 31.4192C23.4418 28.0421 1.99914 39.7966 0.90918 40.4155L9.66162 55.9857C10.5303 55.4898 27.3837 46.4895 52.424 49.092C31.7763 68.8059 27.0641 100.643 26.8182 102.328L44.5198 104.807C44.5689 104.561 46.7775 89.5567 54.5097 75.548C53.2927 99.1554 59.0457 125.538 60.9306 133.345L78.3084 129.181C73.0021 107.09 69.9289 76.1668 74.5673 61.0925C98.8127 104.68 123.525 181.376 107.213 302.475H31.8336V320.996H235.705V302.475H159.019C160.977 270.912 170.594 206.045 194.639 170.019C195.606 178.474 194.7 197.348 189.992 209.869L206.727 216.144C212.553 200.598 213.582 178.921 212.365 168.113C220.986 168.908 228.608 185.47 230.78 193.323L246.744 192.679C246.023 174.876 228.497 153.108 215.983 149.194Z" fill="#F7C1CA" fill-opacity="0.5"></path>
</svg>
